<?xml version="1.0" encoding="UTF-8"?>
<svg xmlns="http://www.w3.org/2000/svg" viewBox="0 0 1095 1095" width="1095" height="1095">
<path d="M894.92 203.07C894.92 262.88 894.92 322.69 894.92 382.5C886.43 384.53 877.23 384.57 868.5 385.19C854.51 386.19 840.41 387.56 826.51 389.14C779.11 394.54 732.13 401.47 685.33 410.7C659.03 415.89 621.28 424.12 600.74 442.26C598.48 444.26 596.37 446.74 594.83 449.33C582.83 469.64 611.49 487.05 625.56 495.96C631.48 499.71 641.85 506.06 639.16 514.53C637.62 519.38 633.14 522.85 629.05 525.53C618.95 532.15 607.42 536.6 596.07 540.54C550.27 556.45 502.7 565.71 455.5 576.01C410.09 585.92 363.95 592.18 318.56 602.19C302.82 605.66 287.12 609.72 271.65 614.24C263.34 616.66 254.99 620.34 246.46 621.84C227.73 625.14 208.55 614.31 202.27 596.27C197.91 583.76 200.09 566.75 200.09 553.5C200.09 523.26 199.54 493.27 204.87 463.46C226.5 342.62 318.26 241.05 438.72 212.34C455.01 208.46 471.8 205.43 488.5 204.05C508.74 202.39 529.2 203 549.5 203C574.5 203 599.5 203 624.5 203C683.83 203 743.17 203 802.5 203C833.29 203 864.14 202.43 894.92 203.07Z" fill="#41d0fd" fill-rule="evenodd" stroke="#41d0fd" stroke-width="0.25" stroke-linejoin="round"/>
<path d="M894.78 472C896.16 496.01 894.93 520.45 894.93 544.5C894.93 577.02 895.6 609.33 889.76 641.39C873.83 728.87 818.83 806.47 743.2 852.66C716.9 868.73 688.35 880.35 658.63 888.22C640.28 893.08 618.3 894.04 601.66 883.16C599.73 880.09 594.9 877.98 591.71 875.81C585.2 871.39 578.83 866.79 572.65 861.92C553.94 847.15 536.22 828.19 528.25 805.33C512.24 759.4 549.29 721.73 584.88 699.4C613.96 681.15 647.35 668.03 680.73 660.31C707.63 654.08 734.8 649.01 761.55 642.09C792.76 634.03 827.48 626.04 853.86 606.39C858.22 603.14 862.26 599.36 865.48 594.96C867.78 591.81 869.8 588.14 870.68 584.3C874.39 568.19 863.67 554.26 853.02 543.48C846.44 536.82 838.87 530.18 837.2 520.43C835.68 511.6 840.49 503.95 846.46 497.96C857.47 486.93 879.74 475.83 894.78 472Z" fill="#08599d" fill-rule="evenodd" stroke="#08599d" stroke-width="0.25" stroke-linejoin="round"/>
<path d="M894.78 472C879.74 475.83 857.47 486.93 846.46 497.96C840.49 503.95 835.68 511.6 837.2 520.43C838.87 530.18 846.44 536.82 853.02 543.48C863.67 554.26 874.39 568.19 870.68 584.3C869.8 588.14 867.78 591.81 865.48 594.96C862.26 599.36 858.22 603.14 853.86 606.39C827.48 626.04 792.76 634.03 761.55 642.09C734.8 649.01 707.63 654.08 680.73 660.31C647.35 668.03 613.96 681.15 584.88 699.4C549.29 721.73 512.24 759.4 528.25 805.33C536.22 828.19 553.94 847.15 572.65 861.92C578.83 866.79 585.2 871.39 591.71 875.81C594.9 877.98 599.73 880.09 601.66 883.16C594.03 881.48 586.35 876.6 579.26 873.25C560.7 864.48 542.29 854.74 525.32 843.16C509.18 832.14 492.91 820.36 480.32 805.21C472.67 796.01 465.78 786.45 461.26 775.27C442.84 729.67 475.97 691.91 511.61 668.06C566.71 631.21 629.06 623.68 691.56 608.18C722.29 600.56 755.26 592.28 781.98 574.49C786.85 571.24 791.62 567.37 795.33 562.81C798.08 559.44 800.5 555.57 801.79 551.39C806.66 535.6 795.61 520.17 784.86 509.63C777.26 502.2 767.55 493.55 768.45 481.75C769.54 467.34 783.41 457.85 794.87 451.37C815.49 439.72 838.65 432.82 861.37 426.73C872.12 423.85 883.41 420.1 894.5 419.01C894.59 436.67 894.69 454.34 894.78 472Z" fill="#064479" fill-rule="evenodd" stroke="#064479" stroke-width="0.25" stroke-linejoin="round"/>
</svg>